<?xml version="1.0" encoding="utf-8"?>
<!-- Generator: Adobe Illustrator 24.2.1, SVG Export Plug-In . SVG Version: 6.00 Build 0)  -->
<svg version="1.1" id="Calque_1" xmlns="http://www.w3.org/2000/svg" xmlns:xlink="http://www.w3.org/1999/xlink" x="0px" y="0px"
	 viewBox="0 0 229 148" style="enable-background:new 0 0 229 148;" xml:space="preserve">
<style type="text/css">
	.st0{fill:#004B6F;}
	.st1{fill:#A6A6A6;}
</style>
<g>
	<g>
		<path class="st0" d="M105.885,84h17.844V27.738h-17.844V84z M82.445,27.947c-6.509,0-13.855,3.469-17.107,9.029h-0.214
			l0.014-7.213c0,0.012,0,0.021,0,0.036c0-0.019,0-0.033,0-0.052c0-0.071,0-0.148,0-0.221c0-0.561,0-1.134,0-1.788H47.294v30.965
			c0,9.657-5.882,12.181-9.761,12.181c-5.672,0-8.815-2.525-8.815-9.764V27.738H10.873v34.531c0,14.276,4.512,23.303,20.15,23.303
			c6.3,0,13.228-3.461,16.584-9.027h0.209V84h17.835V54.295c0-5.986,2.938-11.649,9.657-11.649c9.757,0,8.92,7.555,8.92,15.003V84
			h17.844V49.046C102.072,41.175,100.603,27.947,82.445,27.947z M65.138,29.799c-0.005,5.689-0.014,7.177-0.014,7.177
			S65.138,36.962,65.138,29.799z M105.871,6v17.856h17.858V6H105.871z"/>
		<path class="st1" d="M178.808,51.143h22.152c-0.319-6.084-4.621-11.123-10.608-11.123
			C184.057,40.02,179.859,44.532,178.808,51.143z M218.804,56.956v3.992l-0.005,0.166h-39.991
			c0.314,7.46,4.621,12.393,12.177,12.393c4.303,0,8.501-1.994,10.18-5.988h16.694c-3.252,12.597-14.906,18.053-27.083,18.053
			c-12.405,0-22.038-5.23-26.702-14.628V84h-17.849V57.65c0-7.451,0.837-15.003-8.924-15.003c-6.053,0-9.039,4.595-9.571,9.88
			V36.325c3.428-5.183,10.455-8.378,16.713-8.378c14.64,0,18.434,8.597,19.347,16.061c4.75-9.797,14.939-16.061,26.564-16.061
			C208.387,27.947,218.096,40.488,218.804,56.956z"/>
	</g>
	<path class="st0" d="M63.949,113.108c0.628-0.233,1.127-0.63,1.507-1.186c0.376-0.556,0.561-1.217,0.561-1.98
		c0-0.456-0.076-0.894-0.228-1.312c-0.152-0.423-0.395-0.794-0.718-1.117c-0.323-0.323-0.732-0.58-1.222-0.78
		c-0.494-0.195-1.075-0.295-1.745-0.295h-4.759v11.285h2.073v-4.265h2.496l1.878,4.265h2.225L63.949,113.108z M63.488,111.169
		c-0.319,0.285-0.765,0.428-1.35,0.428h-2.739v-3.357h2.705c0.285,0,0.547,0.043,0.78,0.133c0.233,0.09,0.428,0.214,0.589,0.373
		c0.157,0.157,0.281,0.34,0.366,0.547c0.086,0.204,0.129,0.418,0.129,0.64C63.968,110.472,63.807,110.883,63.488,111.169z
		 M12.585,117.594c0.552,0.223,1.194,0.335,1.926,0.335c0.732,0,1.374-0.112,1.926-0.335c0.551-0.221,1.013-0.533,1.383-0.929
		c0.371-0.397,0.651-0.875,0.837-1.434c0.186-0.556,0.276-1.17,0.276-1.838v-6.956h-2.049v6.925c0,0.806-0.195,1.46-0.575,1.957
		c-0.38,0.499-0.979,0.749-1.797,0.749c-0.818,0-1.417-0.25-1.797-0.749c-0.385-0.497-0.575-1.15-0.575-1.957v-6.925h-2.054v6.956
		c0,0.668,0.095,1.281,0.28,1.838c0.186,0.559,0.466,1.037,0.837,1.434C11.572,117.062,12.033,117.373,12.585,117.594z
		 M30.282,117.723v-11.285h-2.021v7.641l-4.826-7.641h-2.178v11.285h2.021v-7.75l4.883,7.75H30.282z M35.008,106.438H32.92v11.285
		h2.087V106.438z M42.325,117.723l3.709-11.285h-2.068l-2.72,8.611l-2.739-8.611h-2.182l3.742,11.285H42.325z M55.391,115.861
		h-5.986v-3.088h5.268v-1.861h-5.268v-2.61h5.986v-1.864h-8.035v11.285h8.035V115.861z M97.403,103.78l-0.894-1.446l-2.929,2.197
		l0.637,1.032L97.403,103.78z M79.977,106.438H77.89v11.285h2.087V106.438z M123.787,108.301v-1.864h-8.04v11.285h8.04v-1.861
		h-5.986v-3.088h5.268v-1.861h-5.268v-2.61H123.787z M99.581,115.861h-5.982v-3.088h5.264v-1.861h-5.264v-2.61h5.982v-1.864h-8.035
		v11.285h8.035V115.861z M113.521,109.718c-0.095-0.383-0.233-0.749-0.404-1.098c-0.176-0.352-0.409-0.675-0.694-0.97
		c-0.371-0.395-0.832-0.694-1.379-0.899c-0.547-0.209-1.141-0.314-1.788-0.314h-4.393v11.285h4.393c0.647,0,1.241-0.104,1.788-0.311
		c0.547-0.207,1.008-0.506,1.379-0.899c0.285-0.297,0.518-0.623,0.694-0.977c0.171-0.357,0.309-0.725,0.404-1.108
		c0.095-0.38,0.157-0.77,0.181-1.17c0.028-0.397,0.043-0.791,0.043-1.184c0-0.392-0.014-0.789-0.043-1.186
		C113.678,110.491,113.617,110.101,113.521,109.718z M111.644,112.89c-0.01,0.29-0.043,0.575-0.095,0.856
		c-0.052,0.281-0.133,0.547-0.238,0.801c-0.109,0.252-0.261,0.48-0.461,0.68c-0.195,0.19-0.423,0.345-0.694,0.461
		c-0.271,0.114-0.57,0.174-0.899,0.174h-2.339v-7.56h2.339c0.328,0,0.628,0.057,0.899,0.176c0.271,0.116,0.499,0.269,0.694,0.459
		c0.2,0.2,0.352,0.428,0.461,0.682c0.105,0.252,0.186,0.518,0.238,0.799c0.052,0.28,0.085,0.563,0.095,0.849
		c0.01,0.285,0.014,0.554,0.014,0.808C111.658,112.326,111.653,112.6,111.644,112.89z M84.737,117.723h2.049v-9.374h3.343v-1.911
		h-8.734v1.911h3.342V117.723z M75.132,112.098c-0.28-0.271-0.613-0.487-0.989-0.654c-0.376-0.164-0.775-0.278-1.198-0.342
		c-0.376-0.052-0.785-0.1-1.236-0.143c-0.452-0.043-0.856-0.09-1.217-0.143c-0.338-0.052-0.613-0.178-0.827-0.373
		c-0.214-0.197-0.318-0.48-0.318-0.854c0-0.212,0.033-0.392,0.104-0.54c0.067-0.15,0.162-0.287,0.276-0.414
		c0.233-0.245,0.518-0.411,0.856-0.497c0.333-0.081,0.656-0.124,0.975-0.124c0.309,0,0.628,0.052,0.955,0.157
		c0.328,0.105,0.585,0.257,0.766,0.447c0.138,0.15,0.252,0.321,0.342,0.518c0.09,0.195,0.138,0.395,0.152,0.597h2.097
		c-0.009-0.478-0.119-0.918-0.323-1.322c-0.209-0.402-0.48-0.763-0.823-1.082c-0.38-0.362-0.851-0.637-1.407-0.823
		s-1.136-0.276-1.74-0.276c-0.67,0-1.298,0.105-1.878,0.319c-0.585,0.209-1.06,0.504-1.431,0.875
		c-0.3,0.295-0.537,0.632-0.718,1.003c-0.181,0.371-0.271,0.78-0.271,1.224c0,0.468,0.076,0.884,0.233,1.251
		c0.152,0.366,0.357,0.678,0.618,0.939c0.261,0.259,0.561,0.468,0.908,0.628c0.342,0.159,0.713,0.271,1.103,0.335
		c0.376,0.062,0.789,0.109,1.246,0.143c0.452,0.031,0.875,0.086,1.255,0.159c0.352,0.064,0.661,0.197,0.932,0.404
		c0.271,0.209,0.404,0.518,0.404,0.932c0,0.276-0.043,0.492-0.128,0.644c-0.086,0.155-0.19,0.299-0.319,0.437
		c-0.209,0.223-0.49,0.38-0.842,0.471c-0.352,0.091-0.723,0.136-1.113,0.136c-0.333,0-0.666-0.04-1.013-0.121
		c-0.343-0.078-0.637-0.24-0.884-0.485c-0.167-0.169-0.309-0.373-0.418-0.611c-0.114-0.24-0.167-0.497-0.167-0.773h-2.101
		c0,0.54,0.109,1.037,0.333,1.488c0.223,0.449,0.504,0.83,0.842,1.136c0.471,0.426,0.998,0.725,1.583,0.901
		c0.59,0.174,1.189,0.261,1.792,0.261c0.699,0,1.36-0.093,1.983-0.278c0.618-0.185,1.146-0.497,1.583-0.932
		c0.276-0.276,0.499-0.604,0.675-0.986c0.176-0.38,0.261-0.837,0.261-1.367c0-0.478-0.081-0.908-0.247-1.291
		C75.636,112.695,75.413,112.369,75.132,112.098z M19.434,134.141l-6.084-9.643h-2.753v14.24h2.551v-9.78l6.167,9.78h2.67v-14.24
		h-2.551V134.141z M79.968,122.763l0.799,1.139l2.891-1.678l2.884,1.678l0.813-1.139l-3.697-2.769L79.968,122.763z M82.198,124.893
		l-4.864,13.846h2.61l0.925-2.731h5.663l0.925,2.731h2.71l-4.862-13.846H82.198z M81.672,133.656l2.028-6.003l2.028,6.003H81.672z
		 M101.856,138.738h10.142v-2.349h-7.55v-3.899h6.647v-2.349h-6.647v-3.293h7.55v-2.351h-10.142V138.738z M88.964,126.909h4.218
		v11.829h2.591v-11.829h4.217v-2.411H88.964V126.909z M117.14,124.498h-2.591v14.24h9.198v-2.449h-6.606V124.498z M53.765,129.464
		c0.062-0.369,0.159-0.718,0.292-1.053c0.133-0.333,0.321-0.628,0.563-0.88c0.281-0.309,0.611-0.542,0.994-0.704
		c0.38-0.159,0.78-0.24,1.194-0.24c0.442,0,0.854,0.074,1.236,0.221c0.38,0.147,0.685,0.368,0.913,0.661
		c0.188,0.228,0.335,0.461,0.442,0.694c0.107,0.235,0.174,0.506,0.202,0.813h2.651c-0.069-0.561-0.209-1.11-0.423-1.645
		c-0.214-0.537-0.528-1.018-0.944-1.446c-0.535-0.551-1.158-0.96-1.866-1.236c-0.711-0.276-1.448-0.414-2.211-0.414
		c-0.763,0-1.488,0.133-2.178,0.395c-0.689,0.259-1.31,0.666-1.859,1.213c-0.388,0.39-0.699,0.799-0.932,1.227
		c-0.235,0.428-0.414,0.884-0.532,1.364c-0.121,0.483-0.202,0.992-0.242,1.526c-0.04,0.537-0.059,1.094-0.059,1.669
		c0,0.59,0.019,1.146,0.059,1.676c0.04,0.53,0.121,1.034,0.242,1.514c0.119,0.485,0.297,0.939,0.532,1.367
		c0.233,0.43,0.545,0.837,0.932,1.224c0.549,0.552,1.169,0.951,1.859,1.208c0.689,0.252,1.415,0.38,2.178,0.38
		c0.763,0,1.5-0.145,2.211-0.433c0.708-0.288,1.331-0.706,1.866-1.255c0.416-0.428,0.73-0.913,0.944-1.455
		c0.214-0.542,0.354-1.094,0.423-1.657h-2.651c-0.055,0.582-0.269,1.101-0.644,1.552c-0.228,0.295-0.533,0.516-0.913,0.668
		c-0.383,0.155-0.794,0.231-1.236,0.231c-0.414,0-0.813-0.081-1.194-0.242c-0.383-0.159-0.713-0.395-0.994-0.701
		c-0.242-0.254-0.43-0.549-0.563-0.882c-0.133-0.333-0.231-0.685-0.292-1.051c-0.059-0.369-0.095-0.739-0.11-1.113
		c-0.014-0.376-0.019-0.723-0.019-1.044c0-0.321,0.005-0.668,0.019-1.041C53.67,130.204,53.706,129.833,53.765,129.464z
		 M72.995,130.061h-5.844v-5.563H64.56v14.24h2.591v-6.205h5.844v6.205h2.591v-14.24h-2.591V130.061z M46.264,133.237
		c0,1.017-0.24,1.84-0.723,2.468c-0.48,0.63-1.239,0.946-2.268,0.946c-1.032,0-1.788-0.316-2.27-0.946
		c-0.483-0.628-0.723-1.45-0.723-2.468v-8.739h-2.591v8.777c0,0.844,0.117,1.617,0.352,2.32c0.235,0.704,0.585,1.305,1.056,1.807
		c0.468,0.504,1.051,0.894,1.747,1.174c0.694,0.281,1.505,0.423,2.43,0.423c0.922,0,1.733-0.143,2.43-0.423
		c0.697-0.28,1.279-0.67,1.747-1.174c0.468-0.501,0.82-1.103,1.053-1.807c0.235-0.704,0.352-1.476,0.352-2.32v-8.777h-2.591V133.237
		z M25.398,138.738H35.54v-2.349h-7.55v-3.899h6.647v-2.349H27.99v-3.293h7.55v-2.351H25.398V138.738z"/>
</g>
</svg>
